<svg width="176" height="43" viewBox="0 0 176 43" fill="none" xmlns="http://www.w3.org/2000/svg">
<path d="M18.9772 5.22335C18.9772 4.33503 19.1371 3.46447 19.4213 2.68274C17.4137 1.01269 14.8376 0 12.0305 0C5.67005 0 0.5 5.17005 0.5 11.5127V31.8731H9.50761V39.9391C9.50761 41.3426 10.6447 42.4619 12.0305 42.4619C13.4162 42.4619 14.5355 41.3426 14.5355 39.9569V31.8731H23.5431V12.1168C20.8604 10.9797 18.9772 8.33249 18.9772 5.22335ZM18.4975 26.8096H5.56345V11.5127C5.56345 7.94163 8.45939 5.04569 12.0305 5.04569C15.6015 5.04569 18.4975 7.94163 18.4975 11.5127V26.8096Z" fill="#E5005B"/>
<path d="M49.6244 11.2639C43.3706 11.2639 39 15.599 39 21.8172V40.2589H43.5127V29.8832C45.165 31.3401 47.4391 32.1573 49.9797 32.1573C52.7513 32.1573 55.3096 31.1624 57.2107 29.3502C59.2183 27.4137 60.2843 24.7843 60.2843 21.7106C60.2843 15.6523 55.7893 11.2639 49.6244 11.2639ZM49.6244 15.599C53.2132 15.599 55.736 18.104 55.736 21.7106C55.736 25.3172 53.231 27.8223 49.6244 27.8223C45.9645 27.8223 43.5127 25.3705 43.5127 21.7106C43.5127 18.0685 45.9645 15.599 49.6244 15.599Z" fill="#E5005B"/>
<path d="M72.8096 11.2639C66.6269 11.2639 62.1497 15.6523 62.1497 21.7106C62.1497 27.769 66.4848 32.1573 72.4543 32.1573C75.0838 32.1573 77.4289 31.2335 79.099 29.6345V31.6777H83.434V21.7995C83.434 15.599 79.0635 11.2639 72.8096 11.2639ZM72.8096 27.8223C69.2208 27.8223 66.698 25.3172 66.698 21.7106C66.698 18.104 69.203 15.599 72.8096 15.599C76.3985 15.599 78.9213 18.104 78.9213 21.7106C78.9213 25.3172 76.3985 27.8223 72.8096 27.8223Z" fill="#E5005B"/>
<path d="M114.081 2.96698H109.569V31.6776H114.081V2.96698Z" fill="#E5005B"/>
<path d="M127.388 11.2639C121.206 11.2639 116.728 15.6523 116.728 21.7106C116.728 27.769 121.206 32.1573 127.388 32.1573C133.571 32.1573 138.048 27.769 138.048 21.7106C138.048 15.6523 133.571 11.2639 127.388 11.2639ZM127.388 27.8223C123.799 27.8223 121.277 25.3172 121.277 21.7106C121.277 18.104 123.782 15.599 127.388 15.599C130.995 15.599 133.5 18.104 133.5 21.7106C133.5 25.3172 130.977 27.8223 127.388 27.8223Z" fill="#E5005B"/>
<path d="M144.711 2.96698H140.198V31.6776H144.711V2.96698Z" fill="#E5005B"/>
<path d="M152.759 2.96698H148.246V31.6776H152.759V2.96698Z" fill="#E5005B"/>
<path d="M101.591 11.7437V22.0127C101.591 25.6371 99.637 27.7157 96.2436 27.7157C92.7969 27.7157 90.8959 25.6904 90.8959 22.0127V11.7437H86.3832V22.0127C86.3832 28.2132 90.0254 32.0685 95.8883 32.0685C98.1447 32.0685 100.099 31.3756 101.591 30.1142C101.574 33.7919 99.7969 35.5685 96.137 35.5685C94.3959 35.5685 92.1573 35.0888 91.1447 32.9213H86.4898L86.5964 33.2944C87.769 37.3629 91.3401 39.797 96.137 39.797C102.391 39.797 106.122 36.1371 106.122 30.0076V11.7437H101.591Z" fill="#E5005B"/>
<path d="M170.987 11.7437V22.0127C170.987 25.6371 169.033 27.7157 165.64 27.7157C162.193 27.7157 160.292 25.6904 160.292 22.0127V11.7437H155.779V22.0127C155.779 28.2132 159.421 32.0685 165.284 32.0685C167.541 32.0685 169.495 31.3756 170.987 30.1142C170.97 33.7919 169.193 35.5685 165.533 35.5685C163.792 35.5685 161.553 35.0888 160.541 32.9213H155.868L155.975 33.2944C157.147 37.3629 160.718 39.797 165.515 39.797C171.769 39.797 175.5 36.1371 175.5 30.0076V11.7437H170.987Z" fill="#E5005B"/>
</svg>
